<?xml version="1.0" encoding="UTF-8"?>
<svg xmlns="http://www.w3.org/2000/svg" viewBox="0 0 300 300">
  <defs>
    <style>
      .cls-1 {
        fill: none;
      }

      .cls-2 {
        fill: #a1c352;
      }

      .cls-3 {
        fill: #39411f;
      }

      .cls-4 {
        fill: #6f212d;
        stroke: #6f212d;
        stroke-miterlimit: 10;
        stroke-width: 16px;
      }
    </style>
  </defs>
  <g id="_アウトライン" data-name="アウトライン">
    <g id="GVkn7D">
      <path class="cls-4" d="M199.41,218.1c1.18-1.46,1.02-5.7.67-7.55-1.08-5.72-5.86-15.46-7.72-21.91-5.51-19.05-4.93-31.69-6.62-50.76-3.28-37.07-27.23-79.78-70.52-61.17-31.44,13.52-30.73,51.04-27.65,80,2.05,19.29,6.27,49.79,23.91,61.19,9.86,6.37,12.66,2.44,22.21.28s13.4,5.91,23.97,4.45c6.89-.95,8.35-9.22,15.8-10.04,1.88-.21,4.81-.17,6.63.3,4.26,1.09,14.8,10.79,19.32,5.2Z"/>
    </g>
  </g>
  <g id="_モンスター" data-name="モンスター">
    <g>
      <g id="GVkn7D-2" data-name="GVkn7D">
        <path class="cls-2" d="M199.41,218.1c1.18-1.46,1.02-5.7.67-7.55-1.08-5.72-5.86-15.46-7.72-21.91-5.51-19.05-4.93-31.69-6.62-50.76-3.28-37.07-27.23-79.78-70.52-61.17-31.44,13.52-30.73,51.04-27.65,80,2.05,19.29,6.27,49.79,23.91,61.19,9.86,6.37,12.66,2.44,22.21.28s13.4,5.91,23.97,4.45c6.89-.95,8.35-9.22,15.8-10.04,1.88-.21,4.81-.17,6.63.3,4.26,1.09,14.8,10.79,19.32,5.2Z"/>
      </g>
      <g id="AlNmib">
        <g>
          <path class="cls-3" d="M130.23,103.42c-5.32-.89-4.12,11.53-3.83,14.84.71,7.89,5.82,17.56,15.04,16.79,5.96-.5,11.46-7.43,9.06-13.27-1.14-2.77-10.62-10.46-13.51-13.07-1.76-1.59-3.6-4.76-6.76-5.28Z"/>
          <path class="cls-3" d="M111.83,104.05c-1.31-.4-2.95-.28-3.92.75l-12.14,17.14c-.75,1.06-1.07,2.37-.91,3.66,1.9,15.53,19.57,10.68,21.08-4.29.34-3.4-.07-16.02-4.11-17.27Z"/>
        </g>
      </g>
    </g>
  </g>
  <g id="_枠" data-name="枠">
    <rect class="cls-1" width="300" height="300"/>
  </g>
</svg>