<?xml version="1.0" encoding="UTF-8"?>
<svg xmlns="http://www.w3.org/2000/svg" viewBox="0 0 300 300">
  <defs>
    <style>
      .cls-1 {
        fill: none;
      }

      .cls-2 {
        fill: #c23c49;
      }

      .cls-3 {
        fill: #c22629;
      }

      .cls-4 {
        fill: #783e1f;
      }

      .cls-5 {
        fill: #ba7a5c;
      }

      .cls-6 {
        fill: #1b132e;
      }

      .cls-7 {
        fill: #872a2c;
      }

      .cls-8 {
        fill: #6f212d;
        stroke: #6f212d;
        stroke-miterlimit: 10;
        stroke-width: 16px;
      }
    </style>
  </defs>
  <g id="_アウトライン" data-name="アウトライン">
    <path class="cls-8" d="M22.46,175.75c3.35-6.82,9.78-9.26,16.4-11.19.05-.23.09-.45.15-.68,1.76-7.2,8.83-12.25,16.27-14.78-.89-1.86-1.72-7.19-.79-8.5,2.57-3.62,4.13,4.49,3.75,7.62,1.83-.45,3.64-.75,5.37-.89-.03-.09-.05-.19-.06-.27-.11-1.07.93-7,1.42-8.09.92-2.03,2.98-3.52,3.05-.54.02.74-.7,5.86-1.25,8.81,2.55.06,4.93.44,7.1,1.06.83-3.89,3.91-14.47,6.54-12.51.32.24.28,2.27-.11,2.87l-4.54,10.25c6.81,2.54,11.22,7.64,11.98,13.2,1.92,1.28,4.52,3.79,6.25,4.69.72.37,2.2.41,2.71-.87,1.28-3.18-3.84-20.47-3.21-27.15,1.08-11.36,13.07-15.72,23.45-11.95-.22-.44-.42-.88-.52-1.31-1.8-7.6-1.04-11.93,5.2-16.69,6.61-5.06,14.2-5.48,18.15-1.87,10.61-9.23,21.88-18.25,26.32-30.77,2.22-6.25,2-11.75,5.6-18.1,9.9-17.44,36.12-24.37,54.58-29.21,10.67-2.8,41.31-10.49,50.23-3.73,1.51,1.15,3.21,4.84,2.52,6.41-1.21,2.75-26.05,4.71-30.19,6.85.36,1.03,1.4.88,2.26.98,5.84.65,23.9-1.89,21.44,8.82-.16.68-.83,1.78-1.34,2.27-3.57,3.47-17.09,4.91-22.28,6.07-1.92.43-3.64,1.53-5.68,1.58,3.84,2.31,15.63,3.82,16.65,9.52,1.54,8.64-17.22,6.39-21.88,9.65-3.42,2.39-5.59,13.88-8.17,18.4-7.2,12.63-21.52,20.62-34.79,25.39,16.54,8.43,34.69,12.07,47.6,26.46,3.62,4.04,10.45,11.97,2.46,15.34-3.85,1.63-5.41-1.53-7.41-3.25-2.32-2-12.08-2.67-15.82-3.53-4.28-1-18.04-5.7-21.16-5.19-.97.16-4.16,3.35-6.3,5.27.17.05.34.11.52.18,6.28,4.09,13.9,8.1,20.99,10.55,2.79.96,9.48,1.89,11.02,2.69,4.73,2.45-5.63,4.67-7.89,3.81,2.97,1.44,5.23,6.66.9,7.39-5.52.93-22.13-9.48-25.18-14.12-1.59-2.43-3.09-5.95-3.19-8.28-9.74,7.11-17.26,10.86-30.34,9.08-7.4-1.01-19.63-5.75-26.18-11.52-4.84-.3-10.36-2.88-13.75-7.33-1.48-1.94-2.65-4.29-3.45-6.75-1.72-.09-3.52-.36-5.15-.24-1.32.1-2.25,1.33-2.04,2.63l2.67,16.53c.69,3.89-.03,8.18-.52,9.79-3.43,11.28-16.46,13.97-26.33,8.59-2.02-1.1-3.61-2.37-4.84-3.72-1.51,1.22-3.3,2.36-5.41,3.38-6.8,3.3-19.77,4.26-28.58.74-.51-.06-.99-.1-1.4-.07-3.43.23-7.37,1.22-10.54,2.55-2.37,1-5.67,3.97-7.75,4.09-5.54.32-7.78-5.79-5.53-10.38Z"/>
  </g>
  <g id="_モンスター" data-name="モンスター">
    <g>
      <g id="fD66pg">
        <path class="cls-2" d="M64.72,147.26c-9.8.39-23.18,6.32-25.7,16.61-4.74,19.37,25.48,20.65,37.24,14.95,21.42-10.38,10.73-32.45-11.54-31.56Z"/>
      </g>
      <g id="AhhKgh">
        <path class="cls-6" d="M120.74,128.49c-.23.46-1.44.85-1.46,1.39-.03.69,1.21,1.19,1.36,1.74.4,1.47,1.41,6.94,1.22,8.2-.14.98-1.19,1.89-1.14,3.01.14,2.78,6.89,3.67,8.68,5.16,1.26,1.05,2,3.8,3.17,5.33,5.33,6.9,20.19,12.98,28.68,14.14,13.77,1.87,21.38-2.37,31.9-10.23,1.84-1.37,6.37-6.14,7.56-6.33,3.12-.5,16.88,4.2,21.16,5.19,3.74.87,13.49,1.54,15.82,3.53,2,1.72,3.56,4.88,7.41,3.25,7.98-3.37,1.16-11.3-2.46-15.34-12.91-14.39-31.06-18.03-47.6-26.46,13.28-4.77,27.6-12.76,34.79-25.39,2.58-4.52,4.74-16.01,8.17-18.4,4.66-3.26,23.42-1.01,21.88-9.65-1.02-5.69-12.81-7.2-16.65-9.52,2.04-.04,3.76-1.15,5.68-1.58,5.19-1.16,18.71-2.6,22.28-6.07.51-.49,1.18-1.6,1.34-2.27,2.47-10.71-15.6-8.17-21.44-8.82-.86-.1-1.9.05-2.26-.98,4.14-2.13,28.98-4.1,30.19-6.85.69-1.56-1.01-5.26-2.52-6.41-8.92-6.76-39.56.93-50.23,3.73-18.46,4.84-44.68,11.76-54.58,29.21-3.6,6.35-3.38,11.85-5.6,18.1-7.63,21.51-35.39,32.67-45.37,52.32Z"/>
      </g>
      <path class="cls-2" d="M110.69,144.25c-.21-1.3.73-2.53,2.04-2.63,4.12-.31,9.31,1.88,11.57-2.59,2.19-4.32-1.05-9.15-4.65-11.02-10.88-5.67-24.98-1.59-26.15,10.77-.64,6.69,4.49,23.97,3.21,27.15-.52,1.28-1.99,1.24-2.71.87-1.94-1-4.96-4.01-6.9-5.08-8.85-4.89-14.11,10.09-.6,17.45,9.87,5.38,22.9,2.69,26.33-8.59.49-1.62,1.22-5.9.52-9.79l-2.67-16.53Z"/>
      <path class="cls-3" d="M53.29,178.76c2.21-3.06-.4-8.08-2.65-10.51-1.25-1.34-3.2-2.17-4.12-3.29-.84-1.02-.1-2.8-2.4-2.5-1.25.16-2.22,1.23-3.47,1.58-7.23,2.05-14.54,4.28-18.19,11.71-2.26,4.59-.01,10.7,5.53,10.38,2.07-.12,5.38-3.09,7.75-4.09,3.16-1.34,7.11-2.33,10.54-2.55,2.02-.13,5.58,1.28,7.03-.73Z"/>
      <path class="cls-4" d="M219.06,173.39c2.27.85,12.62-1.36,7.89-3.81-1.54-.8-8.23-1.72-11.02-2.69-7.09-2.45-14.72-6.45-20.99-10.55-5.66-2.23-3.06,5.88-.15,10.31,3.04,4.64,19.66,15.04,25.18,14.12,4.33-.73,2.07-5.94-.9-7.39Z"/>
      <path class="cls-6" d="M67.41,160.41c-.5-.44-11.95.45-13.38.86-4.81,1.37.68,4.38,3.72,4.62,2.06.16,6.8-.19,8.46-1.26,1.04-.68,2.07-3.45,1.19-4.21Z"/>
      <path class="cls-7" d="M80.42,135.79c-3.02-2.25-6.63,12-6.75,13.73-.08,1.16-.62,1.51.85,2.21l5.79-13.06c.4-.6.43-2.64.11-2.87Z"/>
      <path class="cls-7" d="M66.27,149.32c.39-.39,1.79-9.86,1.76-10.89-.08-2.98-2.14-1.5-3.05.54-.49,1.09-1.53,7.02-1.42,8.09s1.86,3.13,2.71,2.27Z"/>
      <path class="cls-7" d="M55.72,149.7c.36.2,2.08,0,2.35-.71.85-2.19-.76-12.37-3.58-8.4-1.08,1.52.22,8.53,1.23,9.11Z"/>
      <g id="n3o2BH">
        <path class="cls-5" d="M143.38,141.44c14.87-4.59,11.78-18.42-2.19-21.25,5.73-15.19-8.32-19.96-19.55-11.37-6.23,4.77-6.99,9.09-5.2,16.69.35,1.47,1.79,3.15,1.79,4.1s-1.58,2.88-1.57,4.9c.03,4.84,1.75,10.26,4.68,14.1,8.32,10.91,29.41,10.62,22.04-7.16Z"/>
      </g>
    </g>
  </g>
  <g id="_枠" data-name="枠">
    <rect class="cls-1" width="300" height="300"/>
  </g>
</svg>