<?xml version="1.0" encoding="UTF-8"?>
<svg xmlns="http://www.w3.org/2000/svg" viewBox="0 0 300 300">
  <defs>
    <style>
      .cls-1 {
        fill: none;
      }

      .cls-2 {
        fill: #635f37;
      }

      .cls-3 {
        fill: #085a30;
      }

      .cls-4 {
        fill: #2b6f36;
      }

      .cls-5 {
        fill: #667c36;
      }

      .cls-6 {
        fill: #254322;
      }

      .cls-7 {
        fill: #747342;
      }

      .cls-8 {
        fill: #6f212d;
        stroke: #6f212d;
        stroke-miterlimit: 10;
        stroke-width: 16px;
      }
    </style>
  </defs>
  <g id="_アウトライン" data-name="アウトライン">
    <g id="dm8vt5">
      <path class="cls-8" d="M67.13,85.56c-1.52,8.46,2.64,19.07,5.78,27.02,4.55,11.52,11.66,22.41,16.82,33.8,1.68,3.7,12.7,30.25,12.3,31.92-11.86,7.71-21.29,16.11-28.13,28.71-9.82,18.1-11.07,44.22-9.25,64.47.55,6.13,3.26,9.03,9.02,10.97,6.85,2.31,28.21.83,36.24-.04,3.58-.39,7.95-1,8.47-5.28,1.61-13.2-4.61-27.14,3.21-39.29,3.53-5.49,9.55-8.67,15.5-11.04-1.13,20.81,5.25,41.62,20.61,55.94,1.12,1.05,2.5,2.69,3.63,3.64,3.02,2.56,3.32,4.01,8.62,4.74,7.12.97,26.3-2.07,32.96-5.03,9.98-4.45,12.45-12.85,7.6-22.42-2.91-5.73-11.57-15.07-12.7-21.08-.45-2.37,3.12-15.07,4.59-17.03l1.11-.53c11.74,2.92,27.39,8.1,39.48,6.79,12.79-1.38,14.78-16.92,16.45-27.29,6.49-40.21,1.39-88.35-21.51-122.65-15.22-22.8-51.31-53.61-80.51-50.67-6.35.64-7.51,3.38-12.02,5.46-6.82,3.16-5.04-5.36-5.96-9.99-2.06-10.43-8.22-14.45-18.33-16.03-21.84-3.42-53.69-.05-72.52,12.28-14.12,9.25-9.27,21.06-4.55,34.21,3.98,11.09,9.61,27.03,23.12,28.43Z"/>
    </g>
  </g>
  <g id="_モンスター" data-name="モンスター">
    <g>
      <g id="dm8vt5-2" data-name="dm8vt5">
        <path class="cls-2" d="M67.13,85.56c-1.52,8.46,2.64,19.07,5.78,27.02,4.55,11.52,11.66,22.41,16.82,33.8,1.68,3.7,12.7,30.25,12.3,31.92-11.86,7.71-21.29,16.11-28.13,28.71-9.82,18.1-11.07,44.22-9.25,64.47.55,6.13,3.26,9.03,9.02,10.97,6.85,2.31,28.21.83,36.24-.04,3.58-.39,7.95-1,8.47-5.28,1.61-13.2-4.61-27.14,3.21-39.29,3.53-5.49,9.55-8.67,15.5-11.04-1.13,20.81,5.25,41.62,20.61,55.94,1.12,1.05,2.5,2.69,3.63,3.64,3.02,2.56,3.32,4.01,8.62,4.74,7.12.97,26.3-2.07,32.96-5.03,9.98-4.45,12.45-12.85,7.6-22.42-2.91-5.73-11.57-15.07-12.7-21.08-.45-2.37,3.12-15.07,4.59-17.03l1.11-.53c11.74,2.92,27.39,8.1,39.48,6.79,12.79-1.38,14.78-16.92,16.45-27.29,6.49-40.21,1.39-88.35-21.51-122.65-15.22-22.8-51.31-53.61-80.51-50.67-6.35.64-7.51,3.38-12.02,5.46-6.82,3.16-5.04-5.36-5.96-9.99-2.06-10.43-8.22-14.45-18.33-16.03-21.84-3.42-53.69-.05-72.52,12.28-14.12,9.25-9.27,21.06-4.55,34.21,3.98,11.09,9.61,27.03,23.12,28.43Z"/>
      </g>
      <g id="YGRZ9K">
        <path class="cls-3" d="M63.2,49.02c-6.71,5.33,7.21,12.11,11.8,12.76,5.83.82,15.46-2.41,13.93-9.51-.7-3.28-6.88-3.83-9.82-4.04-2.61-.19-14.43-.37-15.91.8Z"/>
      </g>
      <g id="dm8vt5-3" data-name="dm8vt5">
        <path class="cls-5" d="M189.66,219.4c-10.9-6.67-15.16-16.28-16.82-22.52-.12-.46-.23-.9-.32-1.32-.68-2.97-.73-4.9-.73-4.9-.28-10.47,10.38-17.98,12.88-20.29,1-.93,1.49-1.99,1.66-3.14.05-.3.07-.61.07-.92.02-1.48-.4-3.09-.9-4.73-.81-2.66-9.94-25.46-15.28-38.19,0-.02-.02-.05-.03-.07-1.33-3.2-2.43-5.75-3.1-7.17-3.31-7.12-23.6-41.76-26.65-57.3-3.05-15.55,4.93-22.19,4.93-22.19,3.99-2.95,5.67-4.83,12.02-5.47,14.04-1.41,29.67,4.98,43.81,14.53,1.43.97,2.84,1.96,4.23,2.98,11.75,8.63,22.2,19.22,29.44,28.89.29.38.57.76.84,1.15h0c.77,1.06,1.51,2.11,2.19,3.14,6.94,10.4,12.24,22.06,16.08,34.39.23.73.45,1.46.67,2.19,3.27,11.05,5.39,22.61,6.47,34.23.05.57.1,1.14.16,1.7,1.13,13.4.91,26.86-.48,39.73-.02.27-.05.54-.09.8-.36,3.24-.8,6.45-1.31,9.6-1.67,10.37-3.67,25.91-16.45,27.3-8.85.95-19.61-1.57-29.35-4.13-1.23-.33-2.43-.65-3.63-.97h0c-2.25-.59-4.43-1.18-6.49-1.68-3.57-.87-6.75-2-9.56-3.31l-4.26-2.29Z"/>
      </g>
      <path class="cls-6" d="M137.05,227.51c.15.19.02-.48.03-.72-.35.14-.7.28-1.05.44-5.6,2.32-11.13,5.45-14.44,10.61-.2.32-.41.64-.58.97-.28.48-.54.96-.77,1.44-2.78,5.66-2.92,11.66-2.52,17.77.04.56.09,1.12.13,1.68.46,5.81,1.24,11.68.54,17.42-.52,4.28-4.89,4.89-8.47,5.28-8.03.87-29.39,2.34-36.24.03-5.76-1.94-8.47-4.84-9.02-10.97-.3-3.37-.52-6.91-.63-10.54,0-.3-.02-.59-.02-.9-.14-5.77,0-11.78.52-17.77.05-.62.11-1.26.18-1.88,1-9.89,3.08-19.65,6.68-28.14.2-.47.41-.94.62-1.4.58-1.31,1.22-2.6,1.9-3.84,5.22-9.61,11.95-16.78,20.11-23.06.83-.65,1.68-1.28,2.55-1.9h0c1.75-1.28,3.58-2.52,5.46-3.74,0,0,25.61,37.89,35.02,49.22Z"/>
      <g id="frtwLb">
        <g>
          <path class="cls-7" d="M106.99,169.78l16,28.68c.5.24,1.53-.9,2.74-1,3.92-.34,11.9-.4,15.74.04,3.32-1.99,18.21-3.27,24.01-5.24,1.68-.57,3.66-.44,3.07-2.77-14.2,4.81-29.46,7.47-44.54,6.68-1.89-.62-12.68-21.64-15.07-24.96-.55-.76-.65-1.72-1.96-1.43ZM136.02,227.23c-.02.14-.05.29-.09.44.38-.02.76-.08,1.12-.16,2.57-.6,4.52-2.62,7.17-3.56,9.48-3.35,22.92-2.46,32.96-3.06.47,6.76-.27,14.87,2.78,20.94,1.66.24.63-.92.52-1.75-.9-6.39-1.88-12.71-1.46-19.19,5.05-.37,9.98.05,14.9.8-1.52-.71-2.94-1.47-4.26-2.29-6.57-.56-13.43-.21-19.58-.37l-19.98,1.87-7.48-23.34c-.36-.23-.78-.02-1.15-.06l-2.46,1.84c2.83-1.04,3.61,3,4.27,5.27.59,2.04.58,4.15,1.23,6.16,1.09,3.32,3.11,7.14,4.96,10.12-4.45.67-8.41,2.19-12.01,4.92"/>
          <path class="cls-7" d="M133.47,100.78l6.77,30.79-27.41,3.69c-6.9.9-15.55-.22-22.17.62-.86.11-1.78.33-.91,1.22,7.86,1.83,15.99-.4,23.95.07l8.68,30.73c-4.4-.14-8.86.19-13.26.03-2.3-.09-6.77-1.98-8.28-.03,1.96.45,3.79,1.1,5.83,1.26,6.98.55,19.3-.12,26.52-.61,7.07-.48,14.26-1.81,21.21-3.1,1.35,7.08,1.83,16.16,3.9,22.92.33,1.09.04,2.06,1.64,1.71l-4.06-24.67c8.47-2.76,18.61-3.27,25.61-9.2-18.14,6.77-37.35,10.22-56.68,11.44l-10.43-31.15c14.89-1.02,30.51-3.11,44.65-8,3.71-1.28,8.27-2.97,11.38-5.25l-28.27,7.66c-3.07-9.19-4.19-19.82-7.15-28.92-.35-1.07-.04-1.47-1.51-1.22Z"/>
          <path class="cls-7" d="M140.44,254.86h0c.18.61.37,1.21.59,1.8,4.01-1.97,12.24-6.16,12.75-5.58.55,7.16,4.4,13.92,7.39,20.32-4.62.36-9.14-.19-13.64-1.01.41.66.83,1.3,1.26,1.94,3.58.35,7.14,1.03,10.87.95,3.01-.07,7.02-.87,10.09-1.25,2.71,6.96,8.16,13.53,13.77,18.46h0c.24.22.48.43.72.63.27-.18.37-.46.37-.77-.02-.66-.49-1.48-.75-1.92-1.76-2.99-6.41-7.02-8.78-10.32-.63-.88-3.93-5.41-3.45-6.08,8.49-1.93,29.82-4.38,36.29-12.52-.39-.57-.8-1.15-1.22-1.75l-2.75,3.17c-12.41,6.87-27.27,8.66-41.19,10.52l-8.37-20.99c12.18-3.49,24.8-6.07,37.53-6.14.39,3.18,1.38,6.47,2.58,9.43.34.83,4.56,9.97,6.07,8.41-2.88-5.81-5.92-11.47-7.39-17.87h5.08c-.22-.6-.39-1.18-.49-1.73,0-.03,0-.07-.02-.11-14.97-1.49-43.95,4.67-56.84,12.08-.14.08-.3.19-.48.32Z"/>
          <path class="cls-7" d="M86.67,82.3l6.15,20.93c-7.47-.39-14.38-1.08-21.85.02-1.07.16-1.04-.32-.92,1.21l27.42.64c18.63-1.54,38.03-3.25,55.07-11.43.21-1.34-.35-.97-1.29-.68-4.03,1.24-7.77,2.9-11.99,4.03-14.81,3.95-29.88,5.82-45.21,6.21-.36-5.46-2.19-11.87-4.3-16.96-.18-.43-1.95-5.26-3.09-3.99Z"/>
          <path class="cls-7" d="M47.87,67.16c19.18-4.23,43.85-5.76,62.4-8.37,9.03-1.27,17.41-3.32,26.61-3.56,1.04-.02,1.82-.17,2.73-.65-.14,2.96-4.74,1.65-7,1.93-11.85,1.43-23.56,4.41-35.48,5.46.37,6.62,2.29,15.15-1.54,20.95l.3-20.94-47.21,6.96-.81-1.77Z"/>
          <path class="cls-7" d="M39.8,43.77c.12.61.26,1.21.41,1.82,7.53-1.4,16.02-4.34,24.08-5.69,16.32-2.73,35.2-5.49,51.62-6.87,6.94-.58,17.37.3,23.44-1.22.16-.04.32-.05.47-.05-.02-.4-.04-.8-.06-1.19-19.11-.09-38.14,2.38-57,5.01-14.43,2.02-29.02,3.9-42.96,8.2Z"/>
          <path class="cls-7" d="M80.52,105.1c1.54,7.04,4.28,14.28,7.1,20.92.99,2.33,2.16,5.68,3.34,7.74.48.84.51,1.79,1.87,1.51l-10.79-28.95-1.51-1.22Z"/>
          <path class="cls-7" d="M123,33.64c.37,7.68-.52,15.25-1.85,22.79,1.22.23,1.49-.56,1.89-1.49,1.81-4.17,1.77-15.66,1.18-20.38-.11-.84-.44-1.96-1.22-.92Z"/>
          <path class="cls-7" d="M71.89,15.77v15.09c0,1.02,1.25,3.86,1.24,5.23l1.27-2.16c-1.2-5.54-.58-11.73-1.28-17.26-.14-1.13.2-.99-1.23-.91Z"/>
          <path class="cls-7" d="M111.92,13.93c-.53,1.62.94,1.01,1.21,1.67,1.76,4.36,1.97,9.69,1.51,14.31-.04.45-.69,1.92.65,1.26,3.23-1.59.79-13.75-.99-16.25-.76-1.06-1.07-1.16-2.39-.99Z"/>
          <path class="cls-7" d="M56.5,68.14c.18,5.71,2.46,12.76,6.76,16.63.04-3.31-2.35-6.05-3.54-9.08-.85-2.17-1.05-4.28-1.71-6.33-.34-1.07-.05-1.47-1.52-1.22Z"/>
        </g>
      </g>
      <path class="cls-6" d="M138.33,65.18c.11-.44-.41-.76-.75-.46-3.48,3.05-15.27,12.15-37.35,15.39-26.5,3.89-40.4,3.43-40.4,3.43,0,0,10.47,4.26,14.55,6.49,4.08,2.22,23.63,4.45,36.23-.56,12.6-5,22.98-13.25,27.43-23.07l.29-1.22Z"/>
      <path class="cls-3" d="M88.17,254.79c-.18,3.35,1.69,3.5,2.14.24.34-2.51,0-16.36,1.25-17.24,9.59-.77,19.3.34,28.67,2.46.23-.48.49-.97.77-1.44-5.66-1.65-13.18-2.11-18.94-2.51-1.22-1.22,3.53-18.99,4.69-21.6,2.95-.83,19.23,5.07,22.82,6.71,2.75,1.25,6.99,2.39,6.46,5.83l1.44-1.42c-1.82-3.89-6.34-5.43-10.17-7.05-2.74-1.15-5.64-2.37-8.6-2.8l3.32-9.09-1-1.07-3.64,8.84c-.75.48-12.77-2.56-15.08-2.9-9.92-1.47-20.23-1.75-30.29-.9-.22.47-.42.94-.62,1.4,1.08-.09,2.19-.12,3.31.03.85.12,1.07-.34.9.9-.51,3.88-2.4,8.63-2.99,13.05-.55,4.14-.83,8.3-.76,12.48-2.25.58-4.77,1.01-7.14,1.68-.07.62-.12,1.26-.18,1.88l25.24-4.73c-.97,5.71-1.26,11.47-1.58,17.26ZM73.74,238.15c-.04-8.7,1.31-17.47,3.77-25.8,9.26-.37,18.54-.02,27.62,1.78-2.07,6.86-5.88,15.05-4.31,22.16l-7.69-.6-19.4,2.46Z"/>
      <path class="cls-3" d="M64.01,260.92l46.06-1.22c-.26,2.61.37,21.1,1.54,21.56,1.51.27.87-1.19.91-2.15.33-6.26-1.32-13.01-.61-19.41h5.92c-.05-.56-.09-1.12-.13-1.68-17.38-1.47-36.36.54-53.72,2,0,.3.02.6.02.9Z"/>
      <g id="frtwLb-2" data-name="frtwLb">
        <g>
          <path class="cls-4" d="M154.7,91.54c3.43-5.82,7.64-8.24,13.84-10.47l13.57,29.25c-4.66,1.61-12.42,4.08-11.09,10.18,1.99.45.91-1.57,1.56-3.05,1.26-2.88,5.11-4.05,7.95-4.98,13.4-4.4,42.58-6.21,55.79-1.54,1.25.44,1.19,1.57,1.54,1.57.6,0,1.36-.67,2.26-.5,4.72.9,10.27,3.53,14.51,6.46-.22-.73-.44-1.47-.67-2.19-.53-.37-1.01-.66-1.26-.81-4.24-2.64-9.23-3.79-13.84-5.55-1.19-7.99-4.25-15.61-7.6-22.88-1.28-2.78-4.77-7.75-5.44-9.96-.28-.92,0-1.01.83-.83,2.57.51,6.47,2.92,8.08,3.03.8.05,1.01.06.97-.51h0c0-.12-.02-.27-.05-.43-.11-.23-.39-.48-.8-.73-2.39-1.49-9.06-3.28-10.86-3.63-9.37-1.86-21.31-2.05-30.81-.9-7.44.9-27.6,5.88-33.56,10.47-1.67,1.29-5.93,5.86-4.93,8.01ZM169.79,80.46c14.37-4.28,28.89-7.13,44.02-6.16,1.79.12,7.86.73,9.1,1.36,3.21,1.65,15.58,32.1,13.98,33.74-17.24-3.8-35.52-3.88-52.66.51l-14.44-29.46ZM144.72,61.4c.86-1.93,2.27-3.58,4.05-4.71,4.23-2.67,7.91-4.18,10.71-5.15l2.31-.64,15.75-3.5,15.33,25.98c.23.37.8.11.67-.3-2.69-8.56-9.11-18.82-14.51-25.89,6.55-.12,17.41-2.09,23.4.3.6.23,2.92,1.93,3,1.2.03-.22-.14-.66-.62-1.43-.1-.15-2.26-1.05-3.6-1.55-.45-.17-.82-.3-.97-.33-6.72-1.49-18.09-.32-25.02.75-4.64.71-9.3,1.91-13.75,3.38-2.5-3.74-4.52-7.92-7.97-10.97-.8-.71-3.79-3.67-4.62-1.52,4.78,3.28,8.53,8.06,11.07,13.23-7.47,2.08-17.8,6.15-17.23,15.41,1.51-.33.87-2.09,1.4-2.92l.6-1.35Z"/>
          <path class="cls-4" d="M173.15,196.86c4.07-.5,8.09-2.88,12.83-1.81.46.1.41,1.08,1.28,1.32,11.86,3.19,24.18,5.01,35.38,10.47-.24,8.38-4.18,17.88-12.67,19.86,1.19.33,2.39.65,3.63.97,7.02-2.72,10.23-12.91,11-19.71l15.18,7.29,13.74,8.73c1.3-1.72-5.26-4.87-6.19-5.9,3.47-8.63,5.58-18.05,6.2-27.37l7.18,4.19.19.12c.21-.21.13-.55-.11-.92-.5-.81-1.7-1.81-2.06-2.14-7.81-7.21-21.26-12.74-31.07-16.66,2.02-2.4,2.29-5.81,2.49-8.9.51-7.99-.19-16.68-2.49-24.36,9.51,2.18,19.39,4.68,28.12,9.12,1.29.66,4.52,2.38,5.47,3.17,0,0,.02.02.02.02-.05-.56-.1-1.13-.16-1.7-2.89-2.18-6.45-3.79-9.65-5.19-10.6-4.62-22.73-7.71-34.28-8.52-.18-8.56-1.68-19.24-5.24-27.09-.72-1.59-1.58-4.47-3.36-2.17,2.5,2.46,3.39,7.07,4.25,10.51,1.49,5.97,2.14,12.08,3.13,18.13h-17.55c-2.97,0-11.01,2.07-13.85,3.39-.66.3-6.43,3.93-3.39,3.99.48,0,6.43-3.3,8.45-3.85,11.34-3.14,25.89-1.94,37.35.24,1.56,10.78,1.75,21.7.69,32.58-11.83-3-28.08-10.19-40.34-8.63-.9.12-1.9.47-.9,1.23,23.14,1.15,47.25,9.52,66.27,22.46l-6.56,27.44c-13.45-8.08-27.72-14.65-42.83-19.07l-.19-.84c3.85-7.99,5.84-17.43,6.08-26.29l-7.39,27.1c-3.58-1.47-7.51-1.72-11.22-2.62-1.43-.34-2.02-1.48-3.83-1.72-4.59-.59-10.19.21-14.49,1.89-.05,1.03-.32,1.35.89,1.2Z"/>
        </g>
      </g>
    </g>
  </g>
  <g id="_枠" data-name="枠">
    <rect class="cls-1" width="300" height="300"/>
  </g>
</svg>