<?xml version="1.0" encoding="UTF-8"?>
<svg xmlns="http://www.w3.org/2000/svg" viewBox="0 0 300 300">
  <defs>
    <style>
      .cls-1 {
        fill: none;
      }

      .cls-2 {
        fill: #2d288b;
      }

      .cls-3 {
        fill: #5752a1;
      }

      .cls-4 {
        fill: #6f212d;
        stroke: #6f212d;
        stroke-miterlimit: 10;
        stroke-width: 16px;
      }
    </style>
  </defs>
  <g id="_アウトライン" data-name="アウトライン">
    <g id="_7m8o2D" data-name="7m8o2D">
      <path class="cls-4" d="M140.61,183.99c-41.83-3.92-56.55,24.5-53.91,62.12.78,11.11,9.13,26.73,20.01,30.49,22.43,7.77,68.95,5.31,92.97,2.37,21.7-2.66,32.27-17.77,14.41-34.82-9.46-9.03-20.55-16.07-29.46-26.16-13.86-15.69-19.91-31.74-44.01-34Z"/>
    </g>
  </g>
  <g id="_モンスター" data-name="モンスター">
    <g>
      <g id="_7m8o2D-2" data-name="7m8o2D">
        <path class="cls-3" d="M140.61,183.99c-41.83-3.92-56.55,24.5-53.91,62.12.78,11.11,9.13,26.73,20.01,30.49,22.43,7.77,68.95,5.31,92.97,2.37,21.7-2.66,32.27-17.77,14.41-34.82-9.46-9.03-20.55-16.07-29.46-26.16-13.86-15.69-19.91-31.74-44.01-34Z"/>
      </g>
      <g id="_0eGYyI" data-name="0eGYyI">
        <g>
          <path class="cls-2" d="M146.47,204.51c-3.39.49-11.39,1.89-14.42,2.86-5,1.59-3.9,6.09-.07,8.45,8.16,5.02,20.1-.97,16.27-10.23-.29-.7-1.01-1.18-1.76-1.07,0,0,0,0-.01,0Z"/>
          <path class="cls-2" d="M95.94,208.8c.82,8.66,13.52,12.89,18.84,5.72.93-1.26,2.89-4.67.89-5.72-1.76-.92-12.59-3.28-15.06-3.62-3.52-.49-2.98-.11-4.68,2.4v1.22Z"/>
        </g>
      </g>
    </g>
  </g>
  <g id="_枠" data-name="枠">
    <rect class="cls-1" width="300" height="300"/>
  </g>
</svg>