<?xml version="1.0" encoding="UTF-8"?>
<svg xmlns="http://www.w3.org/2000/svg" viewBox="0 0 300 300">
  <defs>
    <style>
      .cls-1 {
        fill: none;
      }

      .cls-2 {
        fill: #919db3;
      }

      .cls-3 {
        fill: #584f54;
      }

      .cls-4 {
        fill: #b0b0b0;
      }

      .cls-5 {
        fill: #2e362c;
      }

      .cls-6 {
        fill: #483c43;
      }

      .cls-7 {
        fill: #7d8776;
      }

      .cls-8 {
        fill: #6f212d;
        stroke: #6f212d;
        stroke-miterlimit: 10;
        stroke-width: 16px;
      }
    </style>
  </defs>
  <g id="_アウトライン" data-name="アウトライン">
    <path class="cls-8" d="M57.82,168.01c14.95,15.47,28.61,33.48,46.13,46.24,4.43,3.23,10.11,5.7,14.71,8.98,1.51-3.22,3.09-5.9,4.71-6.56.22-.09.46-.17.69-.23.17-2.11.34-4.22.52-6.33-2.53-.75-3.93-2.29-1.52-5.23-3.55-5.91-3.44-20.05,1.4-25.26-.22-.08-.39-.17-.5-.27l-.78-1.68c-.19-2.29,1.88-3.09,4.37-3.33.07-.31.12-.6.1-.89-.16-2.57-4.74-1.35-6.69-1.59-11.88-1.45-23.11-2.94-33.6-9.02-24.22-14.05-21.35-38.05-1.79-51.52-3.18-.46-5.56-.87-5.85-1.15-1.26-1.21.48-6.17,1.1-7.85,2.78-7.45,14.25-19.19,21.89-21.66,12.6-4.06,17.67,3.85,27.28,9.89,11.3,7.1,23.14,13.21,35.91,17.31l11.75,15.36c16.03,18.93,19.35,43.29,21.86,67.42.63,6.06.15,18.76,1.76,23.68,3.72,11.34,23.04,28.65,31.97,37.37.99.97,5.35,3.78,6.32,4.66,2.51,2.27,13.16,5.28,3.46,9.61-5.76,2.57-12.74.17-18.39-1.83-11.18-3.96-21.71-11.23-29.89-19.72-1.98,1.89-3.17,3.87-3.61,5.87-.48,4.54,2.46,6.73,5.03,9.78l-.92.04c3.7,3.11,10.64,5.72,9.97,11.27-.08.67-1.49,4.29-1.87,4.54-.68.45-14.49,2.21-16.22,2.24-1.74.02-3.57-.13-5.43-.35-3.22,1.08-9.13.45-11.54.44-1.65,0-3.18-.73-4.96-.7-2.84.04-11.6,3.42-12.71-.4-1.49-5.12,6.62-7.16,10.57-7.11,3.15-.64,6.36-.86,7.83-.83-1.66-2.67-3.24-5.47-4.55-8.38-2.28-1.82-1.66-5.24-3.14-7.45-.45-.66-.35-1.53.17-2.07-.27-1.65-.41-3.33-.39-5.04-1.78-.68-3.59-.97-5.38-.95-4.11,4.4-8.92,7.92-14.05,8.31-.24.38-.46.78-.67,1.18.03,0,.05,0,.08,0l-1.23,7.03c1.18,2.87,4.76,4.08,5.52,7.84.22,1.07-.65,8.28-1.15,8.77-5.97,2.41-12.45,2.47-18.81,2.23-.2,0-.42-.02-.65-.03-1.76.32-3.63.63-4.22.68-5.37.5-11.41-.37-16.86,0-8.05-4.01,1.97-9.3,7.65-8.01.09-.05.18-.11.27-.16,1.02-.55,4.35-.71,3.99-2.36-.15-.69-2.48-1.78-3.17-2.56-1.53-1.71-2.71-3.39-3.59-5.06-.04,0-.08.02-.11.03-1.87-3.21-2.77-6.76-2.16-10.5.05-.08.3-.18.67-.29.78-3.36,2.73-6.5,5.48-9.33-.61-.55-1.17-1.22-1.64-2.06-.29-.52-.44-1.12-.44-1.72,0-1.69.39-3.36,1.18-4.85.56-1.05,1.14-2.31,1.73-3.69-5.23-.31-11.03-1.01-12.51-1.45-5.36-1.58-13.98-10.85-19.27-14.49-1.5-1.03-7.08-3.53-7.35-3.84-.29-.33.04-1.41-.19-1.64-.41-.4-9.28-.95-10.45-3.28-1.56-3.11,2.38-7.46-1.26-10.84-1.35-1.26-3.43-1.29-4.71-2.93-.76-.97-5.44-12.09-5.67-13.44-.55-3.22-1.35-12.46,3.85-10.87Z"/>
  </g>
  <g id="_モンスター" data-name="モンスター">
    <g>
      <g id="pXtowV">
        <path class="cls-4" d="M76.05,209.37c.23.23-.1,1.31.19,1.64s5.85,2.81,7.35,3.84c5.29,3.63,13.91,12.9,19.27,14.49,2.77.82,20.54,2.56,21.68.93.04-.91-.43-1.82-.98-2.52-4.67-5.93-13.39-8.95-19.62-13.5-17.51-12.77-31.17-30.78-46.13-46.24-5.2-1.59-4.4,7.66-3.85,10.87.23,1.35,4.91,12.46,5.67,13.44,1.28,1.64,3.36,1.68,4.71,2.93,3.63,3.38-.3,7.74,1.26,10.84,1.17,2.34,10.04,2.88,10.45,3.28Z"/>
      </g>
      <g id="rpTRlT">
        <path class="cls-3" d="M170.88,269.19c-3.44-.07-16.38,1.24-15.95,6.03.41,4.45,10.49,1.08,13.02,1.04,5.94-.09,13.09,1.96,19.17,1.87,1.74-.02,15.54-1.79,16.22-2.24.38-.25,1.79-3.86,1.87-4.54.72-6-7.43-8.56-10.79-12.03-4.74-4.91-4.66-10.2.31-14.93,8.18,8.49,18.7,15.76,29.89,19.72,5.66,2,12.64,4.4,18.39,1.83,9.7-4.33-.95-7.34-3.46-9.61-.97-.88-5.33-3.69-6.32-4.66-8.93-8.72-28.25-26.03-31.97-37.37-1.62-4.92-1.13-17.63-1.76-23.68-2.61-25.1-6.09-50.44-23.84-69.67-19.43-21.04-56.99-25.72-82.61-13.9-26.01,12-32.73,40.09-5.69,55.77,10.49,6.08,21.72,7.58,33.6,9.02,1.95.24,6.53-.97,6.69,1.59.06.98-.62,2.12-.65,3.19-.48,14.3-2.12,28.42-3.16,42.64-.43,5.88-1.3,11.77-1.4,17.69-12.29,7.41-19.32,18.86-8.16,31.27.7.78,3.02,1.87,3.17,2.56.36,1.65-2.97,1.82-3.99,2.36-2.98,1.6-3.74,4.96.02,6.05,3.07.89,10.37,1.33,13.8,1.46,6.36.24,12.84.17,18.81-2.23.5-.49,1.36-7.71,1.15-8.77-1.16-5.75-8.91-5.55-4.61-14.4,3.62-7.45,12.33-12.05,20.34-9.01-.13,8.34,3.62,16.05,7.91,22.94Z"/>
      </g>
      <g id="oKsp2P">
        <path class="cls-5" d="M112.47,239.32h0c0,.6.15,1.19.44,1.72,2.93,5.27,9.38,4.78,11.53-1.26.91-.58,6.45,3.63,8.21,4.47,4.48,2.14,11.01,4.31,14.17-1.02,4.61-7.77-13.06-10.94-17.03-14.43-.77-1.2,1.72-6.07,1.48-8.37-.37-3.57-4.79-5.04-7.91-3.75-3.53,1.46-6.88,12.49-9.71,17.8-.79,1.49-1.18,3.16-1.18,4.85Z"/>
      </g>
      <g id="Dj7T1Y">
        <path class="cls-6" d="M178.35,181.31c-1.03.17-.42-1.15-.91-1.76-2.31-2.86-1.47-2.91-2.97-5.39-4.42-7.3-13.59-2.49-15.46,4.13-1.23,4.37-1.6,9.75-2.82,14.49-3.43,13.31-9.88,25.76-18.56,36.32-4.37,5.32-10.23,7.79-7.48,16.45,1.17,3.69,8.05,7.82,11.64,8.07,10.89.75,20.55-13.45,25.52-21.59,9.34-15.32,11.04-23.14,12.25-40.86.12-1.83,2.26-11.23.28-11.65l-1.49,1.79Z"/>
      </g>
      <path class="cls-5" d="M171.78,162.65c-20.62-3.5-28.42,29-8.67,37.82,23.85,10.66,31.13-34,8.67-37.82Z"/>
      <path class="cls-7" d="M82.65,158.17c-.19.25,3.18,3.62,3.76,4,6.21,4.09,16.68.98,23.9.92,3.93-.03,9.67.38,13.7.67,2.79.2,6.89,2.32,9.02.27,1.16-3.97-10.22-7.49-12.93-8.16-12.22-3.02-26.05-3.5-37.46,2.31Z"/>
      <path class="cls-2" d="M112.02,127.94c-2.47-.2-11.68-.7-13.42-.11-1.12.38-1.55,3.17-1.37,4.31,1.34,8.46,20.7,9.9,23.53,2.9,2.91-7.21-3.48-6.69-8.73-7.1Z"/>
      <path class="cls-6" d="M80.96,145.85c-.7-.2-1.46-.27-2.09.17-2.29,2.6,2.51,7.31,4.09,4.07.79-1.63-.36-3.77-2.01-4.23Z"/>
      <path class="cls-6" d="M89.71,147.07c-4.16-1.38-5.92,4.98-1.18,4.28,2.34-.34,3.15-3.63,1.18-4.28Z"/>
      <path class="cls-5" d="M151.78,175.9c-1.26-.32-11.03,1.56-13.47,1.76-3.31.27-7.33-.46-10.47.04-8.63,1.38-9.13,22.92-3.79,28.51,1.08.78,10.93,1.24,13.06,1.22,2.81-.03,7.53-.43,10.4-.72,5.72-.59,6.17-1.58,7.83-7.02,1.97-6.45.33-6.68-.57-12.48-.45-2.9.1-10.5-3-11.3Z"/>
      <path class="cls-5" d="M163.27,121.17c-.36.2-1.5-1.21-2.26.55-1.26,2.93-1.8,11.01-2.91,15.05-2.11,7.67-6.77,17.5-11.18,24.11-1.55,2.33-9.85,10.91-10.06,11.65-.4,1.45.27,2.61,1.58,3.19l6.06-3.01,1.97,2.4c2.03.52,7.72-5.69,9.16-7.35,7.43-8.56,11.73-18.16,14.1-29.24.9-4.22,3.2-11.15.06-14.71-1.87-2.13-4.83-1-3.97-4.39-2.14-.71-2.13,1.51-2.56,1.75Z"/>
      <path class="cls-5" d="M108.4,252.71c-.61,3.74.29,7.29,2.16,10.5,10.21-2.55,20.74-2.25,31.15-1.29l1.24-7.12c-2.73-.32-5.25-.56-7.91-1.38-2.47-.77-5.11-3-7.22-3.3-2.37-.33-7.24.41-9.85.72-1.33.16-9.25,1.35-9.58,1.86Z"/>
      <path class="cls-5" d="M196.16,260.06c-2.58-3.06-5.53-5.25-5.03-9.82-.26-.44-8.66-1.34-10.09-1.36-3.79-.04-13.98.66-17.18,2.05,0,0-.01,0-.02,0-.92.41-1.21,1.59-.65,2.42,1.6,2.38.74,6.19,3.73,7.85l29.24-1.16Z"/>
      <path class="cls-5" d="M198.58,189.41l-1.88-14.17c-4.54,1.17-11.44-1.33-13.41,3.99,2.92,1.96,1.32,3.06,1.79,4.8.56,2.08,3.49,1.11-.67,3.94-1.49,4.83,11.98,1.72,14.16,1.45Z"/>
      <g id="Y9ueXH">
        <g>
          <path class="cls-4" d="M105.54,281.33c5.45-.37,11.49.5,16.86,0,1.11-.1,6.71-1.09,7.67-1.39,5.14-1.55-2.18-7.55-6.71-7.4-3.17.1-5.15,2.89-6.38,3.08-.93.14-2.17-1.92-3.76-2.29-5.67-1.32-15.74,3.99-7.68,8Z"/>
          <path class="cls-4" d="M123.95,179.34l-.78-1.68c-.39-4.68,8.67-3.13,11.41-3.35,4.74-.38,9.5-1.22,14.27-1.34,4.01-6.04,6.96-13.24,15.15-14.23,9.3-1.12,16.06,2.41,21,10.11,12.41,19.37-3.93,46.24-26.79,32.48-8.19-4.93-9.83-12.98-10.2-22.01-3.93.14-22.05,1.77-24.06.01ZM163.4,198.64c18.71,7.7,26.16-13.4,17.59-27.64-4.8-7.98-16.04-10.15-22.77-3.33-9.45,9.57-7.58,25.73,5.18,30.98Z"/>
          <path class="cls-4" d="M168,273.2c.33-2.71-2.46-3.09-4.69-3.18-3.84-.15-12.35,1.86-10.83,7.1,1.11,3.82,9.87.43,12.71.4,1.79-.02,3.31.7,4.96.7,4.02,0,17.84,1.77,12.5-5.64-2.89-4.01-11.17-1.74-14.65.62Z"/>
          <path class="cls-4" d="M149.52,208.39c1.28-1.24,2.16-2.33,2.85-4.02l-28.94.06c-3.96,4.37.02,5.85,4.25,6.21,4.08.35,14.94.56,18.72-.06,2.08-.34,1.96-1.06,3.12-2.19Z"/>
        </g>
      </g>
      <g id="vbcyTs">
        <path class="cls-4" d="M178.51,124.36l-12.62-16.5c-12.77-4.09-24.61-10.21-35.91-17.31-9.61-6.04-14.68-13.95-27.28-9.89-7.64,2.46-19.11,14.21-21.89,21.66-.63,1.68-2.37,6.64-1.1,7.85.89.85,20.89,2.96,24.38,3.55,21.36,3.58,44,9.83,65.18,12.48,2.81.35,6.58.78,9.24.08v-1.91Z"/>
      </g>
    </g>
  </g>
  <g id="_枠" data-name="枠">
    <rect class="cls-1" width="300" height="300"/>
  </g>
</svg>